<?xml version="1.0" encoding="UTF-8"?>
<svg width="1200pt" height="1200pt" version="1.1" viewBox="0 0 1200 1200" xmlns="http://www.w3.org/2000/svg">
 <path d="m894.08 431.5c9.6875-9.6875 25.406-9.6875 35.094 0 9.6797 9.6797 9.6797 25.398 0 35.086l-134.59 134.58 134.59 134.58c9.6797 9.6797 9.6797 25.398 0 35.086-9.6875 9.6797-25.406 9.6797-35.094 0l-134.58-134.58-134.61 134.6c-9.6797 9.6797-25.398 9.6797-35.086 0-9.6875-9.6875-9.6875-25.406 0-35.086l134.61-134.61-134.6-134.61c-9.6875-9.6875-9.6875-25.398 0-35.086s25.406-9.6875 35.086 0l134.61 134.61zm-502.42-280.66v0.09375c-6.8789 0-13.727 2.8555-18.605 8.4375l-366.05 417.07c-8.7969 9.0234-9.4531 23.445-1.1484 33.258l365.85 431.71c4.5234 6.1094 11.781 10.074 19.961 10.074h666.53c38.348 0 73.238-15.703 98.496-40.977 25.266-25.266 40.977-60.152 40.977-98.504l-0.003907-621.71c0-38.281-15.719-73.172-41.055-98.504-25.258-25.25-60.102-40.953-98.406-40.953zm666.53 49.633h-655.41l-345.35 393.48 345.65 407.9h655.11c24.652 0 47.113-10.133 63.41-26.422 16.301-16.301 26.43-38.758 26.43-63.418l-0.003906-621.72c0-24.723-10.082-47.188-26.328-63.418-16.281-16.281-38.773-26.406-63.512-26.406z" fill="#616161" fill-rule="evenodd"/>
</svg>
